<?xml version="1.0" standalone="no"?>
<!DOCTYPE svg PUBLIC "-//W3C//DTD SVG 1.1//EN" "http://www.w3.org/Graphics/SVG/1.1/DTD/svg11.dtd" >
<svg xmlns="http://www.w3.org/2000/svg">
<metadata>
This is a custom SVG webfont generated by Font Squirrel.
</metadata>
<defs>
<font id="webfontaJtE0IUE" horiz-adv-x="651" >
<font-face units-per-em="1000" ascent="800" descent="-200" />
<missing-glyph horiz-adv-x="223" />
<glyph unicode=" "  horiz-adv-x="223" />
<glyph unicode="&#x09;" horiz-adv-x="223" />
<glyph unicode="&#xa0;" horiz-adv-x="223" />
<glyph unicode="!" horiz-adv-x="256" d="M247 665l-68 -479h-57l50 479h75zM182 91l-11 -91h-84l11 91h84z" />
<glyph unicode="&#x22;" horiz-adv-x="311" d="M194 665l-42 -266h-49l24 266h67zM347 665l-42 -266h-48l24 266h66z" />
<glyph unicode="#" horiz-adv-x="707" d="M671 458l-15 -53h-112l-41 -143h113l-14 -53h-113l-59 -209h-58l60 209h-142l-59 -209h-56l59 209h-114l15 53h113l40 143h-113l14 53h113l59 207h57l-58 -207h141l59 207h58l-59 -207h112zM487 405h-142l-41 -143h142z" />
<glyph unicode="$" d="M618 651l-14 -55q-103 19 -204 19q-59 0 -95.5 -7.5t-57 -26t-28.5 -41t-13 -60.5q-9 -68 32 -87q23 -10 113 -16q7 -1 13 -1q117 -8 138 -12q76 -15 93 -74q10 -35 3 -92q-14 -111 -62.5 -155.5t-168.5 -48.5l-14 -113h-63l14 112q-49 1 -101.5 7t-80.5 12l-28 5l15 58 q122 -23 228 -23q98 0 138.5 26.5t49.5 100.5q3 22 3.5 37.5t-3 28.5t-7 21.5t-14.5 15t-20.5 10t-30 6t-37.5 3.5t-48 3q-123 6 -160 18q-67 22 -74 94q-3 28 2 65q14 103 61 143q54 48 191 49l13 111h63l-13 -112q84 -4 167 -21z" />
<glyph unicode="%" horiz-adv-x="881" d="M843 165q-12 -103 -43 -136t-125 -33t-117.5 33.5t-11.5 135.5q13 104 45.5 136.5t124.5 32.5q95 0 117.5 -33t9.5 -136zM785 665l-541 -665h-61l538 665h64zM417 501q-13 -103 -44 -136t-125 -33t-117.5 33.5t-10.5 135.5q12 103 44.5 136t124.5 33q96 0 118.5 -33 t9.5 -136zM788 165q8 48 4.5 75t-20.5 36.5t-62 9.5q-60 0 -79.5 -21.5t-29.5 -99.5q-9 -77 4.5 -98.5t75.5 -21.5t80 21t27 99zM362 501q9 78 -3 99.5t-76 21.5q-60 0 -79.5 -21.5t-28.5 -99.5q-10 -77 3.5 -98.5t75.5 -21.5t80 21t28 99z" />
<glyph unicode="&#x26;" horiz-adv-x="662" d="M667 365l-7 -56h-88l-37 -299q-119 -17 -209 -17q-64 0 -104 6t-75 25t-47.5 58t-5.5 101q4 26 10 48.5t10 32.5l4 9l111 58q9 4 10 12q1 7 -7 12l-88 53q-4 37 2 87q12 100 66.5 139t156.5 39q45 0 89 -5.5t66 -10.5l22 -5l-15 -53q-80 17 -152 17q-80 0 -117 -23.5 t-46 -97.5t22.5 -102t109.5 -28h164l12 100h67l-12 -100h88zM505 309h-171q-83 0 -121 -25.5t-48 -103.5q-4 -37 2.5 -62t18 -38.5t38 -20t47.5 -8t60 -1.5q30 0 66 2t57 4l20 3z" />
<glyph unicode="'" horiz-adv-x="158" d="M194 665l-42 -266h-49l24 266h67z" />
<glyph unicode="(" horiz-adv-x="288" d="M319 668l-7 -55q-44 0 -64 -16q-26 -20 -35 -81q-12 -75 -22 -163l-30 -240q-2 -15 -8.5 -73t-9.5 -90q-5 -56 10.5 -76.5t64.5 -21.5l-6 -54h-13q-52 0 -78.5 19t-36.5 62q-8 42 1 121l48 390q11 90 15 109q16 95 51.5 132.5t106.5 37.5q7 0 13 -1z" />
<glyph unicode=")" horiz-adv-x="288" d="M261 587q8 -42 -1 -120l-48 -390q-11 -89 -14 -110q-16 -95 -51.5 -132t-107.5 -37h-12l6 54q45 1 65 16q24 17 34 82q16 106 23 163l30 240q8 64 17 163q5 56 -10.5 76t-64.5 21l7 55q5 1 12 1q54 0 80 -19t35 -63z" />
<glyph unicode="*" horiz-adv-x="417" d="M434 523l-131 -50l61 -117l-40 -29l-60 121l-96 -121l-31 29l91 117l-117 50l22 49l117 -49l18 142h45l-18 -142l129 49z" />
<glyph unicode="+" d="M579 364l-8 -63h-178l-24 -199h-62l24 199h-178l8 63h178l25 198h62l-25 -198h178z" />
<glyph unicode="," horiz-adv-x="204" d="M166 91l-11 -91l-69 -135h-61l69 135h-46l11 91h107z" />
<glyph unicode="-" horiz-adv-x="282" d="M269 275l-8 -65h-188l8 65h188z" />
<glyph unicode="." horiz-adv-x="199" d="M161 91l-11 -91h-101l11 91h101z" />
<glyph unicode="/" horiz-adv-x="411" d="M460 666l-457 -865h-60l457 865h60z" />
<glyph unicode="0" d="M632 332q-9 -76 -17.5 -121.5t-23.5 -88t-34 -64t-52 -38t-75 -22t-104 -5.5t-103 5.5t-70 22t-43.5 38t-19.5 64t-2 88.5t12 121q9 76 19 125.5t26.5 90.5t37 63t53.5 37t73 20t99 5q92 0 141 -15.5t73.5 -54t22.5 -104.5t-13 -167zM563 332q8 67 11 106t0 75t-12.5 53 t-31.5 30.5t-51.5 17t-77.5 3.5q-45 0 -74 -3.5t-54.5 -15.5t-40 -30t-27 -52.5t-20.5 -76t-16 -107.5q-8 -68 -11.5 -107t0 -75t13 -52t31.5 -29t51.5 -16t78.5 -3q37 0 63 2t48.5 9.5t37 15t27 26t19.5 35.5t14 50.5t11.5 63t10.5 80.5z" />
<glyph unicode="1" d="M516 56l-7 -56h-348l7 56h144l68 555h-163l7 55h231l-75 -610h136z" />
<glyph unicode="2" d="M620 503q-3 -24 -7.5 -43t-12.5 -35l-16 -27q-6 -12 -22 -24l-24 -18q-9 -6 -32 -15.5l-35 -14.5l-43 -16l-47 -17l-40 -15l-68 -26q-20 -8 -45 -22t-34.5 -27.5t-17.5 -34.5t-12 -52l-7 -57h418l-7 -59h-484l14 112q7 52 19.5 85.5t39.5 56t49 33.5t71 29l155 59 q63 24 87.5 47t30.5 73q8 70 -22 95.5t-128 25.5q-53 0 -109.5 -6t-86.5 -12l-31 -7l-4 56q107 26 241 26q125 0 173.5 -36.5t36.5 -133.5z" />
<glyph unicode="3" d="M610 666l-12 -102l-219 -164q-9 -5 -9 -14q-1 -8 3.5 -11.5t14.5 -2.5q2 0 17 1t24 1q92 2 131 -44t28 -136q-6 -50 -25 -87t-44.5 -58.5t-62.5 -34.5t-73.5 -17t-83.5 -4q-50 0 -100.5 5t-76.5 10l-25 6l15 55q97 -18 198 -18q97 0 148 28t61 108q9 69 -14.5 101.5 t-90.5 32.5l-103 -4l-22 73l244 184q13 10 13 21q0 13 -21 13h-364l7 58h442z" />
<glyph unicode="4" d="M636 211l-7 -57h-114l-18 -154h-67l18 154h-389l16 131l353 381h89l-368 -386q-21 -23 -23 -38q-1 -15 8.5 -23t26.5 -8h294l30 245h67l-30 -245h114z" />
<glyph unicode="5" d="M607 666l-7 -58h-377l-26 -205q-2 -20 14 -20q7 0 18 7l60 38q43 8 85 8q64 0 104.5 -8.5t71 -32t39.5 -67.5t1 -113q-15 -128 -78.5 -175t-194.5 -47q-55 0 -110 5.5t-83 11.5l-27 5l15 55q103 -20 203 -20q107 0 150.5 34t55.5 130q6 53 -1 86t-30 50t-53 22.5t-80 5.5 q-43 0 -89.5 -9t-71.5 -18l-25 -9l-40 19l38 305h438z" />
<glyph unicode="6" d="M624 648l-16 -54q-95 22 -195 22q-68 0 -108.5 -10.5t-62.5 -37.5q-6 -7 -11.5 -16t-10.5 -21l-8 -21q-3 -9 -6 -24.5t-5 -23t-4.5 -25.5t-3 -22t-3 -22.5t-2.5 -19.5q-2 -19 14 -19q6 0 20 8l60 38q63 12 105 12t72 -2t57 -8t42.5 -16t29 -26t16.5 -38t5.5 -52t-4.5 -68 q-8 -67 -27 -108.5t-54 -63.5t-77.5 -29.5t-110.5 -7.5q-96 0 -145.5 14t-71.5 52q-6 11 -10.5 23.5t-6.5 28.5t-3.5 30t-1 34t1 32.5t2.5 34.5t3 31l4 32q2 23 3 27q0 1 3.5 30.5t5 37t5.5 35.5t7.5 40t9 35.5t11.5 37t14.5 30t18.5 28.5q32 38 85 52t148 14q51 0 102.5 -6 t76.5 -12zM535 203q3 27 3.5 48t-3.5 37t-9 27t-17 18.5t-23 12t-31 6.5t-37 2.5t-45 0.5q-43 0 -91 -7.5t-74 -14.5l-26 -7q-4 -27 -11 -90q-8 -67 -1 -108.5t44 -59.5t119 -18q45 0 69.5 1.5t51 9.5t40.5 24.5t25 45t16 72.5z" />
<glyph unicode="7" d="M638 666l-4 -54q-6 -71 -22 -113t-42 -70t-86 -76q-58 -46 -86.5 -74.5t-50.5 -72t-29 -103.5l-13 -103h-70l13 103q12 100 49.5 157t130.5 131q75 59 99 92.5t29 87.5l3 36h-425l7 59h497z" />
<glyph unicode="8" d="M634 515q-7 -57 -41 -101l-93 -49q-10 -6 -11 -14q-2 -10 13 -16q113 -49 98 -170q-12 -96 -73 -134t-203 -38q-131 0 -187.5 38t-42.5 149q6 54 40 101l93 49q11 6 12 14q1 10 -13 16q-53 23 -71.5 59t-10.5 96q6 48 26 80t56.5 48.5t78.5 23t103 6.5q124 0 180.5 -32.5 t45.5 -125.5zM565 515q7 57 -30 79t-134 22t-139.5 -22.5t-49.5 -78.5q-8 -61 40.5 -96.5t175.5 -60.5q33 10 63 33q65 52 74 124zM533 177q4 36 -12.5 63t-52.5 45.5t-73.5 30t-91.5 22.5q-36 -11 -66 -34q-65 -52 -74 -124q-9 -80 26.5 -105t143.5 -25q123 0 163 36 q29 26 37 91z" />
<glyph unicode="9" d="M621 332q-17 -147 -39 -207q-15 -41 -36 -66q-31 -38 -84 -52t-149 -14q-51 0 -102.5 6t-76.5 12l-26 6l16 54q95 -22 195 -22q68 0 109 10.5t63 37.5q6 7 11.5 16.5t9.5 21t7.5 20.5t6.5 24.5t5 23t4.5 25t3 22.5t3 23t2.5 19q2 19 -13 19q-6 0 -20 -8l-60 -38 q-64 -12 -106 -12t-72 2t-57 8t-42.5 16t-29 26t-16.5 38t-5.5 52t4.5 68q8 67 27 108.5t54 63.5t78 29.5t111 7.5q95 0 144.5 -14t71.5 -52q36 -61 10 -260q-1 -9 -2 -14zM561 429q9 67 2 108.5t-44 59.5t-119 18q-56 0 -85 -3t-57 -18t-41 -46t-20 -86q-3 -27 -3.5 -48 t3.5 -37t9 -27t17 -18.5t23 -12t31 -6.5t37 -2.5t45 -0.5q44 0 91.5 7t73.5 15l26 7q4 27 11 90z" />
<glyph unicode=":" horiz-adv-x="199" d="M161 91l-11 -91h-101l11 91h101zM199 397l-12 -91h-100l11 91h101z" />
<glyph unicode=";" horiz-adv-x="204" d="M201 397l-11 -91h-101l11 91h101zM166 91l-11 -91l-69 -135h-61l69 135h-46l11 91h107z" />
<glyph unicode="&#x3c;" d="M604 562l-8 -67l-373 -163l333 -163l-8 -67l-395 201l7 59z" />
<glyph unicode="=" d="M589 447l-7 -63h-418l7 63h418zM569 280l-8 -63h-418l8 63h418z" />
<glyph unicode="&#x3e;" d="M579 362l-7 -60l-443 -200l8 67l373 163l-333 163l8 67z" />
<glyph unicode="?" horiz-adv-x="518" d="M519 496q-5 -40 -8.5 -58.5t-12 -44t-22.5 -39t-38 -27.5t-60 -26q-63 -20 -81.5 -34t-23.5 -55l-2 -19h-68l2 19q7 61 33 86t109 54q67 24 82 45t25 99q5 42 -0.5 66.5t-26 36.5t-44 15t-68.5 3q-44 0 -90.5 -5t-70.5 -10l-25 -5v53q86 23 202 23q110 0 155.5 -36 t32.5 -141zM266 91l-11 -91h-84l11 91h84z" />
<glyph unicode="@" horiz-adv-x="709" d="M700 333q-5 -42 -10.5 -67.5t-19 -61t-39.5 -53.5t-63 -18q-29 0 -46 8t-21 17.5t-9.5 17.5t-13.5 8q-10 0 -22 -12l-35 -32q-29 -6 -57 -6q-91 0 -115.5 44t-11.5 151q14 112 52.5 153t139.5 41q27 0 60.5 -2.5t54.5 -5.5l20 -3l-32 -259q-7 -25 -3 -52.5t33 -27.5 q54 0 73 160q14 102 10.5 157.5t-28.5 85.5q-6 7 -13.5 13t-14.5 10t-18 7l-17 6q-7 2 -20.5 4t-19 2.5t-20.5 1t-19 0.5h-20h-18h-18h-20q-4 0 -19.5 -0.5t-21 -1t-19.5 -2.5t-21 -4l-19 -6q-12 -3 -20 -7t-17 -10t-17 -13q-33 -30 -51 -84t-31 -159q-13 -103 -8.5 -158 t31.5 -85q17 -20 46.5 -30.5t52 -12t59.5 -1.5q41 0 86.5 2t70.5 4l25 3l-2 -51q-81 -11 -177 -11q-49 0 -81 2.5t-73 15.5t-63 38q-33 38 -39.5 107.5t8.5 176.5q14 114 36.5 180t64.5 104q29 26 77.5 39.5t79.5 15t86 1.5t85.5 -1.5t76 -15t68.5 -39.5q32 -37 37 -107 t-10 -177zM496 474q-29 4 -60 4q-75 0 -98.5 -33t-33.5 -116q-5 -47 -5 -80t21.5 -50.5t68.5 -17.5q18 0 31 2.5t21.5 10t13.5 13t8.5 20.5t5 22t3.5 27z" />
<glyph unicode="A" horiz-adv-x="724" d="M730 46l-6 -46h-173l5 46l31 6q17 3 18 13q1 3 -2 15l-36 122h-362l-66 -122q-6 -12 -6 -15q-1 -7 2.5 -9t12.5 -4l29 -6l-6 -46h-171l6 46l36 9q18 5 29 23l282 512q11 20 -8 23l-36 7l6 46h194l164 -588q4 -18 22 -23zM552 256l-90 337q-2 10 -4 14t-6 7t-11 3 q-10 0 -14.5 -4.5t-10.5 -15.5q-1 -3 -2 -4l-181 -337h319z" />
<glyph unicode="B" horiz-adv-x="688" d="M680 488q-3 -22 -7.5 -42.5t-8.5 -29.5l-3 -9l-102 -53q-9 -4 -10 -12q-1 -7 7 -12l98 -58q1 -3 2 -10t2.5 -30t-3.5 -49q-11 -95 -59 -139t-140 -44h-392l6 46l37 7q14 2 16 18l64 524q2 16 -12 18l-35 7l6 46h381q92 0 128 -41.5t25 -136.5zM610 487q9 74 -21 97.5 t-110 23.5h-222l-30 -243h220q79 0 116.5 24.5t46.5 97.5zM585 184q10 76 -22 100.5t-115 24.5h-228l-31 -251h228q83 0 121 25t47 101z" />
<glyph unicode="C" horiz-adv-x="622" d="M652 646l-17 -58q-131 23 -214 23q-130 0 -173 -38q-30 -27 -47.5 -82.5t-29.5 -158.5q-13 -101 -8.5 -156.5t28.5 -83.5q20 -23 59.5 -31.5t107.5 -8.5q45 0 98.5 5.5t84.5 10.5l31 6l3 -55q-118 -26 -232 -26q-85 0 -136 12.5t-77 43.5q-30 36 -36.5 103.5t7.5 180.5 q14 116 36.5 182.5t61.5 101.5q60 56 223 56q103 0 230 -27z" />
<glyph unicode="D" horiz-adv-x="737" d="M718 334q-6 -49 -12 -82.5t-16.5 -72t-25 -63t-37.5 -48.5t-53 -37.5t-71.5 -22t-94.5 -8.5h-344l6 46l37 7q14 2 16 18l64 524q2 16 -12 18l-35 7l6 46h344q91 0 144.5 -23.5t72.5 -66.5t21 -104.5t-10 -137.5zM648 333q4 31 6 48.5t4 44t1 41t-3.5 35.5t-9.5 32l-15 25 q-9 14 -23 21.5t-32.5 14.5t-43 10t-54.5 3h-221l-68 -550h221q33 0 61 4.5t48.5 10.5t37.5 19.5t28.5 24.5t21.5 33t15 37t10.5 44.5t7.5 47.5z" />
<glyph unicode="E" horiz-adv-x="598" d="M631 666l-7 -58h-367l-30 -238h358l-7 -57h-358l-31 -255h367l-7 -58h-485l6 46l37 7q14 2 16 18l64 524q2 16 -12 18l-35 7l6 46h485z" />
<glyph unicode="F" horiz-adv-x="551" d="M610 666l-7 -58h-346l-30 -243h337l-7 -58h-337l-29 -236q-2 -16 12 -18l35 -7l-6 -46h-168l6 46l37 7q14 2 16 18l64 524q2 16 -12 18l-35 7l6 46h464z" />
<glyph unicode="G" horiz-adv-x="679" d="M671 642l-16 -57q-125 26 -236 26q-47 0 -76 -3t-57 -13.5t-44 -28.5t-30.5 -50t-23.5 -75.5t-17 -108.5q-8 -66 -10 -109.5t4.5 -76t18 -50t37.5 -28t55 -13.5t77 -3q56 0 106.5 6t72.5 12l22 7l33 269h68l-42 -346h-58l-2 35q0 16 -15 16q-7 0 -21 -8l-66 -40 q-44 -10 -102 -10q-61 0 -100.5 4.5t-73 18t-50.5 36t-26.5 61.5t-8 91t10.5 128q14 112 34.5 177t61 102.5t92.5 49t141 11.5q56 0 116 -7.5t92 -14.5z" />
<glyph unicode="H" horiz-adv-x="779" d="M797 666l-6 -46l-37 -7q-14 -2 -16 -18l-64 -524q-2 -16 12 -18l35 -7l-6 -46h-168l6 46l37 7q14 2 16 18l29 240h-415l-29 -240q-2 -16 12 -18l35 -7l-6 -46h-168l6 46l37 7q14 2 16 18l64 524q2 16 -12 18l-35 7l6 46h168l-6 -46l-37 -7q-14 -2 -16 -18l-28 -228h415 l28 228q2 16 -12 18l-35 7l6 46h168z" />
<glyph unicode="I" horiz-adv-x="296" d="M314 666l-6 -46l-37 -7q-14 -2 -16 -18l-64 -524q-2 -16 12 -18l35 -7l-6 -46h-168l6 46l37 7q14 2 16 18l64 524q2 16 -12 18l-35 7l6 46h168z" />
<glyph unicode="J" horiz-adv-x="416" d="M438 666l-6 -46l-37 -7q-14 -2 -16 -18l-55 -446q-11 -95 -54 -126.5t-129 -31.5q-31 0 -61.5 3t-45.5 6l-16 3l13 52q57 -8 115 -8q62 0 82.5 22t28.5 88l54 438q2 16 -12 18l-35 7l6 46h168z" />
<glyph unicode="K" horiz-adv-x="672" d="M723 666l-6 -46l-38 -8q-20 -4 -39 -19l-309 -258l252 -255q14 -14 20.5 -17.5t23.5 -8.5l31 -8l-6 -46h-195l5 46l19 4q21 4 23 16q1 8 -7 16l-204 207q-24 24 -40 24q-17 0 -27 -10q-8 -8 -10 -27l-25 -205q-2 -16 11 -18l36 -7l-6 -46h-168l6 46l36 7q15 2 17 18 l64 524q2 16 -12 18l-35 7l6 46h168l-6 -46l-37 -7q-14 -2 -16 -18l-25 -204q-2 -20 3 -27q8 -9 25 -9q19 0 46 23l253 210q8 6 9 13q1 10 -13 14l-21 5l6 46h185z" />
<glyph unicode="L" horiz-adv-x="532" d="M521 59l-7 -59h-450l6 46l37 7q14 2 16 18l64 524q2 16 -12 18l-35 7l6 46h168l-6 -46l-37 -7q-14 -2 -16 -18l-66 -536h332z" />
<glyph unicode="M" horiz-adv-x="907" d="M925 666l-6 -46l-37 -7q-14 -2 -16 -18l-64 -524q-2 -16 12 -18l35 -7l-6 -46h-168l6 46l37 7q14 2 16 18l63 518q2 14 -1.5 20.5t-16.5 6.5q-12 0 -25 -19l-232 -372h-88l-141 372q-7 17 -20 19q-22 0 -25 -27l-63 -518q-2 -16 12 -18l35 -7l-6 -46h-162l6 46l37 7 q14 2 16 18l64 524q2 16 -12 18l-35 7l6 46h192l140 -372q2 -8 8 -8t11 7l231 373h197z" />
<glyph unicode="N" horiz-adv-x="807" d="M825 666l-6 -46l-37 -7q-14 -2 -16 -18l-73 -595h-146l-252 597q-8 19 -21 19q-22 0 -25 -27l-63 -518q-2 -16 12 -18l35 -7l-6 -46h-163l6 46l37 7q14 2 16 18l64 524q2 16 -12 18l-35 7l6 46h198l251 -592q7 -18 21 -18q13 0 17.5 6.5t6.5 20.5l63 512q2 16 -12 18 l-35 7l6 46h163z" />
<glyph unicode="O" horiz-adv-x="673" d="M654 332q-9 -76 -17.5 -122.5t-24 -89t-35.5 -63.5t-54 -37.5t-77.5 -21.5t-108.5 -5t-107.5 5.5t-73 22t-45 38t-20 64t-2.5 88.5t12 121q10 78 19.5 128t26 91t36.5 62.5t55.5 36t76.5 19t105 4.5q65 0 107.5 -5t72.5 -22t44.5 -38t19.5 -64t2 -89t-12 -123zM584 332 q18 115 13 178t-43 84.5t-141 21.5q-50 0 -80.5 -3t-57.5 -14.5t-41.5 -28t-27 -51.5t-20 -76.5t-15.5 -110.5q-8 -68 -11 -106.5t0.5 -74.5t13.5 -52.5t33.5 -29t54.5 -16t82 -3.5q52 0 84.5 3t58.5 17t39.5 29t25.5 53t17.5 74t14.5 106z" />
<glyph unicode="P" horiz-adv-x="672" d="M679 466q-4 -33 -8 -55t-18 -58t-35 -58t-61 -39t-93 -17h-64l-106 4l-44 33q-10 8 -18 8q-10 0 -13 -4.5t-5 -14.5l-23 -194q-2 -16 11 -18l35 -7l-5 -46h-168l6 46l37 7q14 2 16 18l64 524q2 16 -12 18l-35 7l6 46h369q188 0 164 -200zM608 456q11 90 -21.5 121 t-114.5 31h-215l-37 -300q56 -12 189 -12q54 0 82 3.5t55.5 19t41 48t20.5 89.5z" />
<glyph unicode="Q" horiz-adv-x="710" d="M701 49l-6 -49h-335h-22q-65 0 -107.5 5.5t-73 22t-45 38t-20 64t-2.5 88.5t12 121q7 58 14 99t17.5 77.5t21.5 59t29.5 41.5t38.5 29t51 17t64.5 9t81.5 2q49 0 84 -2.5t63.5 -10.5t46.5 -18.5t30.5 -31t17.5 -42.5t5.5 -59t-2.5 -75t-10 -95q-16 -120 -39 -181l-70 -62 q-14 -12 -15 -20q-2 -18 29 -20h6zM584 338q19 152 12 195q-9 54 -60 71q-38 12 -123 12q-51 0 -80.5 -2t-57.5 -13t-41 -27t-26.5 -50.5t-20.5 -75.5t-15 -110q-8 -67 -11 -106t0.5 -75t13.5 -52.5t33.5 -29.5t54.5 -16.5t82 -3.5q39 0 66 2t50.5 9t38 14.5t27.5 26 t20.5 35.5t14.5 50.5t11.5 63.5t10.5 82z" />
<glyph unicode="R" horiz-adv-x="703" d="M681 484q-9 -81 -55 -127q-22 -20 -56 -35q-28 -10 -63 -15q-14 -2 -19 -5q-9 -4 -10 -17q-1 -7 6 -21l102 -186q9 -16 31 -22q3 0 5 -1l37 -9l-6 -46h-108l-122 223l11 83h-214l-29 -235q-2 -16 12 -18l35 -7l-6 -46h-168l6 46l37 7q14 2 16 18l64 524q2 16 -12 18 l-35 7l6 46h358q110 0 150 -41t27 -141zM612 485q8 67 -14 92q-27 31 -123 31h-218l-30 -245h218q98 0 130 31q29 26 37 91z" />
<glyph unicode="S" horiz-adv-x="616" d="M601 651l-14 -55q-103 19 -204 19q-59 0 -95.5 -7.5t-57 -26t-28.5 -41t-13 -60.5q-9 -68 32 -87q22 -10 113 -16q7 -1 13 -1q116 -8 136 -12q76 -15 94 -72q11 -36 4 -94q-14 -118 -69.5 -161.5t-198.5 -43.5q-53 0 -112 6t-91 12l-33 6l15 58q122 -23 227 -23 q99 0 139.5 26.5t49.5 100.5q3 22 3.5 37.5t-3 28.5t-7 21.5t-14.5 15t-20.5 10t-30 6t-37.5 3.5t-48 3q-123 6 -160 18q-67 22 -74 94q-3 28 2 65q12 101 61 143q31 27 78.5 38t128.5 11q104 0 214 -22z" />
<glyph unicode="T" horiz-adv-x="576" d="M653 666l-7 -59h-249l-66 -536q-2 -16 12 -18l35 -7l-6 -46h-168l6 46l37 7q14 2 16 18l66 536h-249l7 59h566z" />
<glyph unicode="U" horiz-adv-x="766" d="M785 666l-6 -46l-37 -7q-14 -2 -16 -18l-64 -524q-2 -16 12 -18l35 -7l-6 -46h-108l-2 35q0 16 -14 16q-9 0 -21 -7l-68 -41q-65 -10 -134 -10q-146 0 -187 47.5t-23 187.5l45 367q2 16 -12 18l-35 7l6 46h168l-6 -46l-37 -7q-14 -2 -16 -18l-44 -363q-14 -115 13.5 -148 t140.5 -33q56 0 112.5 6.5t84.5 13.5l29 7l63 517q2 16 -12 18l-35 7l6 46h168z" />
<glyph unicode="V" horiz-adv-x="705" d="M766 666l-6 -46l-30 -8q-21 -5 -29 -24l-281 -588h-134l-136 588q-3 12 -7.5 16.5t-16.5 7.5l-29 8l6 46h170l-6 -46l-31 -7q-17 -4 -14 -21l112 -507q3 -17 8.5 -24t19.5 -7t20.5 7t15.5 24l232 508q7 16 -9 20l-30 7l6 46h169z" />
<glyph unicode="W" horiz-adv-x="1132" d="M1188 666l-5 -46l-31 -8q-22 -5 -29 -24l-233 -588h-150l-82 602q-2 18 -17 18t-20 -18l-231 -602h-146l-89 588q-2 19 -24 24l-29 8l6 46h171l-6 -46l-31 -7q-16 -4 -14 -21l71 -507q2 -16 8 -23.5t20 -7.5q24 0 36 31l223 581h126l84 -581q2 -16 8 -23.5t20 -7.5 q24 0 36 31l191 508q7 16 -10 20l-28 7l5 46h170z" />
<glyph unicode="X" horiz-adv-x="672" d="M716 666l-5 -46l-34 -8q-15 -3 -25 -16l-198 -245l146 -281q6 -13 21 -16l32 -8l-6 -46h-172l6 46l33 9q13 3 8 16l-108 223q-5 11 -8.5 16t-10 8.5t-17.5 3.5q-16 0 -24 -6t-20 -22l-165 -217q-6 -7 -6 -12q-1 -7 10 -11l28 -8l-6 -46h-170l6 46l33 8q16 4 26 16 l214 281l-135 245q-7 13 -22 16l-31 8l6 46h170l-6 -46l-34 -9q-13 -3 -7 -16l104 -189q6 -12 9 -16.5t9.5 -8t17.5 -3.5q16 0 23.5 5.5t20.5 22.5l150 189q10 12 -3 16l-32 9l5 46h167z" />
<glyph unicode="Y" horiz-adv-x="620" d="M673 666l-6 -46l-37 -7q-14 -2 -16 -18l-49 -401q-6 -46 -12 -72t-22 -54.5t-42.5 -42.5t-72.5 -23t-113 -9q-51 0 -99 4.5t-70 8.5l-23 5l15 54q73 -15 185 -15q62 0 97.5 7t54 28.5t24 41.5t10.5 66l7 55q2 21 -15 21q-6 0 -18 -8l-68 -43q-50 -7 -96 -7 q-122 0 -159 43.5t-24 152.5l23 188q2 16 -12 18l-35 7l6 46h168l-6 -46l-37 -7q-14 -2 -16 -18l-22 -183q-11 -90 18.5 -116.5t140.5 -26.5q39 0 89 10.5t68 16.5l37 299q2 16 -12 18l-35 7l6 46h168z" />
<glyph unicode="Z" horiz-adv-x="624" d="M625 666l-16 -129l-459 -427q-13 -13 -14 -25q-2 -9 4.5 -17t24.5 -8h401l-7 -60h-500l15 119l462 438q17 17 16 32q-1 19 -29 19h-393l7 58h488z" />
<glyph unicode="[" horiz-adv-x="274" d="M309 665l-7 -50h-86l-93 -765h86l-6 -49h-146l106 864h146z" />
<glyph unicode="\" horiz-adv-x="411" d="M420 -199h-60l-245 864h60z" />
<glyph unicode="]" horiz-adv-x="274" d="M276 665l-106 -864h-147l6 49h87l93 765h-87l7 50h147z" />
<glyph unicode="^" horiz-adv-x="536" d="M536 366h-78l-116 248l-174 -248h-77l214 300h90z" />
<glyph unicode="_" horiz-adv-x="498" d="M490 -67l-8 -63h-498l8 63h498z" />
<glyph unicode="`" horiz-adv-x="245" d="M267 558l-25 -36l-120 88l38 48z" />
<glyph unicode="a" horiz-adv-x="537" d="M513 447l-47 -384q-1 -6 -0.5 -10t3 -5.5t8.5 -2.5l26 -5l-5 -40h-98l-1 25q-3 16 -15 16q-5 0 -21 -9l-51 -32q-44 -7 -86 -7q-73 0 -110 30.5t-41 83.5t3 125q7 57 18.5 95.5t34.5 73.5t63.5 52.5t98.5 17.5q44 0 99 -6t88 -12zM445 408q-72 12 -137 12 q-86 0 -118 -37.5t-46 -150.5t8.5 -150.5t108.5 -37.5q31 0 66.5 5t55.5 10l20 5z" />
<glyph unicode="b" horiz-adv-x="526" d="M504 234q-17 -141 -67.5 -191t-182.5 -50q-108 0 -184 25l72 585q1 10 -1 13.5t-11 4.5l-25 5l4 40h103l-27 -219q-2 -21 15 -21q7 0 19 7l49 31q40 7 88 7q104 0 133.5 -56.5t14.5 -180.5zM438 234q14 113 -8.5 149.5t-108.5 36.5q-31 0 -66 -5t-55 -10l-20 -5l-42 -342 q55 -14 134 -14q89 0 120.5 36t45.5 154z" />
<glyph unicode="c" horiz-adv-x="465" d="M480 451l-13 -47q-71 16 -144 16q-97 0 -130.5 -34.5t-47.5 -153.5q-15 -119 10 -153.5t121 -34.5q33 0 70 4t58 8l20 4l2 -47q-78 -20 -166 -20q-121 0 -160.5 47.5t-21.5 191.5t69 191.5t172 47.5q39 0 79 -5t61 -10z" />
<glyph unicode="d" horiz-adv-x="529" d="M540 666l-74 -603q-1 -6 -0.5 -10t3 -5.5t8.5 -2.5l26 -5l-5 -40h-97l-1 25q-3 16 -15 16q-5 0 -21 -9l-52 -32q-39 -7 -86 -7q-72 0 -109 30.5t-41.5 83.5t3.5 125q7 57 18 96t34 73.5t63.5 52t98.5 17.5q94 0 158 -16l18 148q1 10 -1 13.5t-11 4.5l-25 5l5 40h103z M445 408q-72 12 -137 12q-86 0 -118 -37.5t-46 -150.5q-14 -114 8.5 -150.5t108.5 -36.5q31 0 66.5 5t55.5 10l20 5z" />
<glyph unicode="e" horiz-adv-x="527" d="M510 270q-3 -24 -9 -54q-136 -8 -155 -8l-138 4l-28 21q-10 7 -17 7q-19 0 -21 -31q-13 -92 14 -127q29 -37 125 -37q41 0 82.5 4t62.5 8l22 4l3 -48q-68 -20 -171 -20q-36 0 -61 2t-50.5 8.5t-40.5 17.5t-29.5 28.5t-18.5 43t-7 60t5 79.5q13 103 44 157q25 46 73 64 t131 18q136 0 168 -47q30 -44 16 -154zM442 261q5 37 5.5 62t-4 43.5t-12 29t-24 16.5t-34.5 7.5t-48 1.5q-28 0 -48.5 -1t-37.5 -5.5t-28 -8.5t-20 -14.5t-14.5 -19t-10.5 -28t-8 -34.5t-8 -44q30 -5 67 -7t59 -2h23q82 -2 143 4z" />
<glyph unicode="f" horiz-adv-x="311" d="M408 669l-10 -46q-32 4 -62 4q-60 0 -78 -17q-19 -18 -27 -83l-8 -62h147l-6 -49h-147l-43 -353q-1 -6 -0.5 -10t3 -5.5t8.5 -2.5l26 -5l-5 -40h-143l5 39l26 5q15 3 17 18l43 354h-88l6 49h88l8 63q6 47 18 77t42 50q33 21 105 21z" />
<glyph unicode="g" horiz-adv-x="537" d="M555 465l-5 -39l-26 -5q-15 -3 -17 -18l-49 -399q-11 -94 -33 -138.5t-66 -62.5t-132 -18q-36 0 -71 3.5t-52 7.5l-17 3l13 49q56 -13 133 -13q51 0 80 6t46 25.5t23 43.5t12 74l3 27q-96 -18 -148 -18q-70 0 -109 18.5t-55 58.5q-20 49 -6 164q15 124 59 180.5t147 56.5 l85 -6l44 -32q11 -9 20 -9q12 0 17 16l7 25h97zM444 400q-67 20 -136 20q-86 0 -117.5 -36.5t-45.5 -149.5q-15 -118 7.5 -154t111.5 -36q32 0 66.5 3t53.5 7l18 3z" />
<glyph unicode="h" horiz-adv-x="555" d="M521 40l-5 -40h-143l5 39l26 5q15 3 17 18l27 226q11 84 -9.5 108t-102.5 24q-31 0 -67 -4t-57 -8l-20 -5l-42 -340q-1 -6 -0.5 -10t3 -5.5t8.5 -2.5l26 -5l-5 -40h-143l5 39l26 5q15 3 17 18l66 541q1 10 -1 13.5t-11 4.5l-25 5l5 40h103l-27 -218q-3 -21 14 -21 q9 0 19 7l49 31q53 6 81 6q104 0 135 -34.5t18 -135.5l-29 -238q-1 -6 -0.5 -10t3 -5.5t8.5 -2.5z" />
<glyph unicode="i" horiz-adv-x="236" d="M231 666l-10 -76h-79l10 76h79zM209 465l-49 -402q-1 -6 -0.5 -10t3 -5.5t8.5 -2.5l26 -5l-5 -40h-143l5 39l26 5q15 3 17 18l41 340q1 6 0.5 10t-3 5.5t-8.5 2.5l-26 5l5 40h103z" />
<glyph unicode="j" horiz-adv-x="229" d="M228 666l-10 -76h-79l10 76h79zM206 465l-70 -571q-10 -91 -126 -91l-72 6l10 47q26 -3 41 -3q52 0 67 10.5t20 51.5l59 487q1 6 0.5 10t-3 5.5t-8.5 2.5l-26 5l5 40h103z" />
<glyph unicode="k" horiz-adv-x="496" d="M518 465l-5 -40l-38 -6q-10 -3 -17 -8l-183 -159l152 -191q8 -10 21 -13l33 -8l-5 -40h-87l-162 216q-14 18 -30 18q-26 0 -29 -26l-18 -145q-1 -6 -0.5 -10t3 -5.5t8.5 -2.5l26 -5l-5 -40h-143l5 39l26 5q15 3 17 18l66 541q1 10 -1 13.5t-11 4.5l-25 5l5 40h103 l-46 -375q-3 -27 22 -27q15 0 35 18l209 183h74z" />
<glyph unicode="l" horiz-adv-x="226" d="M224 666l-74 -603q-1 -6 -0.5 -10t3 -5.5t8.5 -2.5l26 -5l-5 -40h-143l5 39l26 5q15 3 17 18l66 541q1 10 -1 13.5t-11 4.5l-25 5l5 40h103z" />
<glyph unicode="m" horiz-adv-x="877" d="M843 39l-5 -40h-143l5 40l26 5q10 1 12.5 4.5t4.5 13.5l27 226q11 84 -9.5 108t-102.5 24q-42 0 -151 -15q14 -40 9 -78l-32 -264q-1 -6 -0.5 -10t3 -5.5t8.5 -2.5l26 -5l-5 -40h-143l5 39l26 5q15 3 17 18l27 226q11 84 -9.5 108t-102.5 24q-31 0 -64.5 -4t-51.5 -8 l-18 -4l-42 -341q-1 -6 -0.5 -10t3 -5.5t8.5 -2.5l26 -5l-5 -40h-143l5 39l26 5q15 3 17 18l41 340q1 6 0.5 10t-3 5.5t-8.5 2.5l-26 5l5 40h93l1 -25q0 -16 14 -16q6 0 22 9l51 32q45 6 73 6q48 0 78 -6.5t38 -12t20 -17.5q13 -9 17 -9t17 7l55 30q37 8 97 8 q104 0 135 -34.5t18 -135.5l-29 -239q-3 -16 11 -18z" />
<glyph unicode="n" horiz-adv-x="565" d="M531 39l-5 -40h-143l5 40l26 5q10 1 12.5 4.5t4.5 13.5l27 226q11 84 -9.5 108t-102.5 24q-31 0 -67 -4t-57 -8l-20 -5l-42 -340q-1 -6 -0.5 -10t3 -5.5t8.5 -2.5l26 -5l-5 -40h-143l5 39l26 5q15 3 17 18l41 340q1 6 0.5 10t-3 5.5t-8.5 2.5l-26 5l5 40h92l1 -25 q3 -16 14 -16q6 0 22 9l52 32q55 6 83 6q104 0 135 -34.5t18 -135.5l-29 -239q-3 -16 11 -18z" />
<glyph unicode="o" horiz-adv-x="522" d="M500 232q-18 -149 -62.5 -194t-177.5 -45q-56 0 -90 6t-58.5 21.5t-31.5 42.5t-9.5 68.5t7.5 100.5q10 78 22.5 121t40.5 71.5t68 37.5t110 9q133 0 166.5 -45t14.5 -194zM434 232q6 46 8 73t-1 50.5t-10 34.5t-23.5 19t-37.5 10t-57 2q-53 0 -79.5 -5t-46 -27t-27 -55 t-15.5 -102q-6 -46 -8 -73t1 -50.5t10 -34.5t23.5 -19t37.5 -10t57 -2q53 0 79.5 5t46 27t27 55t15.5 102z" />
<glyph unicode="p" horiz-adv-x="537" d="M516 234q-14 -113 -47 -164q-48 -77 -182 -77q-50 0 -144 18l-18 -147q-1 -10 1.5 -13t10.5 -5l25 -5l-4 -40h-143l4 39l27 5q9 2 12 5.5t4 12.5l66 539q1 6 0.5 10t-3 5.5t-8.5 2.5l-26 5l5 40h97l1 -25q0 -16 14 -16q8 0 21 9l52 32q46 6 87 6q103 0 133 -57t15 -180z M450 234q14 113 -8.5 149.5t-108.5 36.5q-31 0 -66.5 -5t-55.5 -10l-20 -5l-42 -343q62 -13 134 -13q89 0 120.5 36t46.5 154z" />
<glyph unicode="q" horiz-adv-x="525" d="M513 447l-72 -583q-1 -10 1.5 -13t10.5 -5l25 -5l-4 -40h-103l27 221q2 20 -15 20q-7 0 -19 -7l-55 -36q-41 -6 -83 -6q-73 0 -110 30.5t-41 83.5t3 125q7 57 18.5 95.5t34.5 73.5t63.5 52.5t98.5 17.5q44 0 99 -6t88 -12zM445 408q-72 12 -137 12q-86 0 -118 -37.5 t-46 -150.5t8.5 -150.5t108.5 -37.5q31 0 66.5 5t55.5 10l20 5z" />
<glyph unicode="r" horiz-adv-x="367" d="M433 467l-11 -60q-36 5 -77 5q-37 0 -73 -2.5t-54 -5.5l-17 -2l-41 -339q-1 -6 -0.5 -10t3 -5.5t8.5 -2.5l26 -5l-5 -40h-143l5 39l26 5q15 3 17 18l41 340q1 6 0.5 10t-3 5.5t-8.5 2.5l-26 5l5 40h92l1 -25q3 -16 14 -16q6 0 22 9l52 32q55 6 83 6q39 0 63 -4z" />
<glyph unicode="s" horiz-adv-x="508" d="M473 454l-13 -49q-90 14 -158 14q-82 0 -111 -18t-34 -58q-5 -43 6 -56q6 -7 15 -11.5t26 -6.5t27.5 -2.5t37 -1t36.5 -0.5q95 -3 126 -20q49 -28 39 -115q-10 -75 -58.5 -106t-164.5 -31q-45 0 -91.5 5t-71.5 10l-24 4l13 51q82 -17 182 -17q98 0 129 30q19 17 23 52 q5 40 -7 55q-20 23 -134 24q-93 3 -120 13q-63 23 -51 117q10 75 56 104.5t150 29.5q39 0 82 -4.5t67 -8.5z" />
<glyph unicode="t" horiz-adv-x="338" d="M347 465l-6 -49h-133l-36 -295q-6 -48 7 -63q14 -14 64 -14l52 5l1 -44q-51 -9 -83 -9q-69 0 -91 24t-11 121l34 275h-88l6 49h88l15 124h63l-15 -124h133z" />
<glyph unicode="u" horiz-adv-x="557" d="M531 465l-49 -402q-1 -6 -0.5 -10t3 -5.5t8.5 -2.5l26 -5l-5 -40h-93l-1 25q0 16 -14 16q-8 0 -21 -9l-52 -32q-48 -7 -76 -7q-103 0 -134 35t-19 136l29 238q1 6 0.5 10t-3 5.5t-8.5 2.5l-26 5l5 40h103l-35 -288q-11 -84 9.5 -108.5t102.5 -24.5q31 0 65.5 5t53.5 9 l19 5l41 339q1 6 0.5 10t-3 5.5t-8.5 2.5l-26 5l5 40h103z" />
<glyph unicode="v" horiz-adv-x="510" d="M557 465l-5 -39l-24 -6q-11 -3 -15.5 -6t-8.5 -12l-184 -402h-130l-86 402q-3 14 -18 18l-24 6l5 39h147l-5 -39l-26 -6q-18 -4 -14 -20l67 -321q3 -14 4.5 -19.5t6 -10.5t13.5 -5q13 0 19.5 7.5t15.5 27.5l140 321q9 16 -7 20l-26 5l5 40h150z" />
<glyph unicode="w" horiz-adv-x="779" d="M823 465l-5 -39l-24 -6q-19 -5 -24 -18l-148 -402h-132l-46 411q-2 6 -6 6q-3 0 -7 -6l-144 -411h-128l-52 402q-1 13 -18 18l-24 6l5 39h149l-5 -39l-26 -6q-16 -4 -14 -20l30 -321q3 -35 24 -35q13 0 20.5 8.5t14.5 26.5l129 376h107l41 -376q3 -35 26 -35q22 0 33 35 l104 321q7 16 -7 20l-26 5l5 40h148z" />
<glyph unicode="x" horiz-adv-x="506" d="M529 465l-5 -39l-26 -6q-12 -2 -20 -13q-3 -3 -4 -5l-127 -160l100 -179q9 -15 19 -18l25 -6l-5 -39h-152l5 39l25 6q14 2 15 12q0 7 -3 13l-74 139q-9 16 -23 16t-27 -16l-107 -139q-6 -9 -6 -13q-1 -10 11 -12l24 -6l-5 -39h-149l5 39l27 6q11 3 23 18l139 179l-93 160 q-9 15 -19 18l-24 6l5 39h148l-5 -39l-24 -6q-22 -3 -13 -23l67 -124q12 -21 26 -21q13 0 27 19l99 126q13 18 -5 23l-25 6l5 39h146z" />
<glyph unicode="y" horiz-adv-x="541" d="M549 465l-5 -39l-26 -5q-15 -4 -17 -18l-47 -383q-11 -94 -33 -138.5t-66 -62.5t-132 -18q-36 0 -71 3.5t-52 7.5l-17 3l13 49q56 -13 133 -13q51 0 80 6t46 25.5t23 43.5t12 74l2 18q4 21 -14 21q-7 0 -19 -8l-50 -32q-29 -6 -57 -6q-103 0 -134 35t-19 136l29 238 q1 6 0.5 10t-3 5.5t-8.5 2.5l-26 5l5 40h143l-5 -39l-26 -5q-15 -4 -17 -18l-27 -226q-11 -84 9.5 -108.5t102.5 -24.5q31 0 61.5 5t44.5 10l15 5l41 338q1 6 0.5 10t-3 5.5t-8.5 2.5l-26 5l5 40h143z" />
<glyph unicode="z" horiz-adv-x="454" d="M456 465l-14 -115l-325 -268q-8 -6 -10 -15q-2 -17 19 -17h294l-6 -50h-367l13 108l326 274q11 10 10 21q0 13 -18 13h-287l6 49h359z" />
<glyph unicode="{" horiz-adv-x="294" d="M329 665l-7 -54q-39 0 -60 -14q-26 -18 -35 -83l-20 -166q-6 -48 -21.5 -73.5t-48.5 -42.5q29 -17 38 -42t3 -73l-20 -167q-7 -57 12 -79q15 -17 53 -17h6l-6 -53h-40q-29 0 -51 11t-29 30q-15 32 -5 107l20 165q5 40 -4 60.5t-37 30.5l7 55q29 9 43.5 29.5t19.5 62.5 l20 164q10 73 31 107q29 42 91 42h40z" />
<glyph unicode="|" horiz-adv-x="227" d="M226 665l-102 -831h-61l102 831h61z" />
<glyph unicode="}" horiz-adv-x="294" d="M275 260l-7 -55q-30 -10 -44 -30t-19 -61l-20 -165q-9 -71 -31 -107q-12 -19 -37 -30t-54 -11h-40l6 53q39 0 60 14q29 21 36 83l20 167q6 47 21.5 72.5t47.5 42.5q-28 16 -37 42t-3 74l20 166q7 58 -11 79q-15 17 -54 17h-7l7 54h40q28 0 50 -11.5t30 -30.5 q14 -32 5 -107l-20 -164q-5 -41 4 -61.5t37 -30.5z" />
<glyph unicode="~" horiz-adv-x="564" d="M608 699q-34 -54 -66 -78q-42 -32 -87 -32q-40 0 -82 22l-55 27q-38 19 -63 19q-27 0 -50 -17.5t-50 -57.5l-37 27q38 62 72 87.5t78 25.5q36 0 106 -35q66 -33 95 -33q28 0 50 15t50 55z" />
<glyph unicode="&#xa2;" d="M568 451l-13 -47q-70 16 -144 16q-97 0 -130.5 -34.5t-47.5 -153.5q-15 -119 10 -153.5t121 -34.5q33 0 70 4t58 8l20 4l3 -47q-63 -16 -138 -19l-10 -83h-54l10 82q-104 4 -138.5 53t-17.5 186q16 137 62.5 186t152.5 53l10 80h54l-10 -81q33 -1 66 -6t50 -9z" />
<glyph unicode="&#xa3;" d="M639 651l-14 -54q-85 19 -167 19q-111 0 -151 -34q-5 -4 -9 -8.5t-7 -9.5l-5 -8q-2 -4 -4 -11t-3 -9.5t-2 -10.5t-1.5 -9.5t-1.5 -11.5t-1 -11l-21 -172h208l-7 -59h-209l-11 -92q-5 -44 -17.5 -68.5t-45.5 -49.5l419 5l-7 -57h-498l6 52q38 10 53 38.5t25 106.5l8 65 h-75l7 59h75l21 170q4 33 7.5 50.5t15.5 41.5t33 42q55 48 176 48q50 0 101 -5.5t77 -11.5z" />
<glyph unicode="&#xa5;" d="M653 666l-5 -39l-27 -5q-8 -2 -14 -12q-1 -3 -2 -4l-99 -154h93l-7 -55h-120l-63 -98h126l-7 -55h-145l-22 -181q-1 -10 1 -13.5t11 -4.5l25 -5l-5 -40h-139l5 40l26 5q10 1 12.5 4.5t4.5 13.5l22 181h-145l7 55h126l-37 98h-117l7 55h89l-59 154q0 1 -1 3q-3 11 -11 12 l-26 5l5 40h151l-5 -39l-29 -5q-9 -1 -12.5 -8t-1.5 -14l86 -235q6 -16 18 -16q11 0 21 16l144 235q5 6 3 13.5t-11 8.5l-28 4l5 40h150z" />
<glyph unicode="&#xa8;" horiz-adv-x="349" d="M378 618l-9 -73h-78l9 73h78zM201 618l-9 -73h-78l9 73h78z" />
<glyph unicode="&#xa9;" horiz-adv-x="797" d="M780 334q-10 -79 -20.5 -128.5t-30 -90.5t-43.5 -62.5t-66.5 -36t-93 -19t-129.5 -4.5q-78 0 -127.5 4.5t-88.5 19t-58 36t-28 62.5t-7.5 91t11.5 128t20 128t29.5 91t43.5 62.5t66.5 36t93.5 19t129 4.5t127.5 -4.5t89 -19t58 -36t28 -62.5t8 -91t-11.5 -128zM740 334 q9 74 11 120t-7 82.5t-24.5 54.5t-51.5 30t-77.5 14.5t-113.5 2.5t-114 -2.5t-81.5 -14.5t-59.5 -30t-38 -54.5t-27 -82.5t-18 -120t-11 -120t7 -82.5t24 -54.5t51.5 -30t78 -14.5t113.5 -2.5t114 2.5t81.5 14.5t59 30t37.5 54.5t27.5 82.5t18.5 120zM601 514l-10 -43 q-59 13 -127 13q-51 0 -73 -8.5t-35.5 -39t-22.5 -100.5q-5 -43 -5 -68.5t4 -42.5t18 -24t30.5 -9.5t47.5 -2.5q20 0 44 2t40 4l30 4q15 2 16 2l-1 -42q-64 -16 -133 -16q-35 0 -57.5 2.5t-41.5 10.5t-29 21t-16 35t-5 52t6 72q8 63 19.5 100.5t34.5 58.5t53.5 28t82.5 7 q23 0 47.5 -2.5t40 -5t28.5 -5.5t14 -3z" />
<glyph unicode="&#xab;" horiz-adv-x="409" d="M261 479l-123 -223l79 -224l-48 -32l-91 256l140 253zM410 479l-124 -223l80 -224l-49 -32l-90 256l139 253z" />
<glyph unicode="&#xad;" horiz-adv-x="282" d="M269 275l-8 -65h-188l8 65h188z" />
<glyph unicode="&#xae;" horiz-adv-x="797" d="M780 334q-10 -79 -20.5 -128.5t-30 -90.5t-43.5 -62.5t-66.5 -36t-93 -19t-129.5 -4.5q-78 0 -127.5 4.5t-88.5 19t-58 36t-28 62.5t-7.5 91t11.5 128t20 128t29.5 91t43.5 62.5t66.5 36t93.5 19t129 4.5t127.5 -4.5t89 -19t58 -36t28 -62.5t8 -91t-11.5 -128zM740 334 q9 74 11 120t-7 82.5t-24.5 54.5t-51.5 30t-77.5 14.5t-113.5 2.5t-114 -2.5t-81.5 -14.5t-59.5 -30t-38 -54.5t-27 -82.5t-18 -120t-11 -120t7 -82.5t24 -54.5t51.5 -30t78 -14.5t113.5 -2.5t114 2.5t81.5 14.5t59 30t37.5 54.5t27.5 82.5t18.5 120zM618 419 q-6 -46 -31 -71q-14 -13 -32 -20q-16 -7 -35 -8q-15 -2 -17 -12q0 -4 4 -12l54 -98q5 -9 21 -13l20 -5l-4 -33h-68l-68 126l5 43h-112l-15 -123q0 -8 5 -8l24 -5l-4 -33h-111l4 33l26 5q4 0 7 8l35 287q0 7 -5 7l-24 5l4 33h211q65 0 89 -24t17 -82zM566 420q4 36 -7 49 q-14 16 -66 16h-117l-16 -130h117q50 0 70 17q15 14 19 48z" />
<glyph unicode="&#xb4;" horiz-adv-x="245" d="M273 610l-140 -88l-17 36l132 100z" />
<glyph unicode="&#xb8;" horiz-adv-x="192" d="M171 -110q-10 -76 -107 -76q-51 0 -85 16l15 32q30 -11 53 -11q64 0 69 39q4 31 -38 31q-22 0 -43 -8l-9 21l40 66h53l-50 -52l1 -2q23 7 47 7q28 0 42.5 -17.5t11.5 -45.5z" />
<glyph unicode="&#xbb;" horiz-adv-x="409" d="M244 256l-153 -256l-40 32l133 224l-68 223l50 30zM393 256l-154 -256l-39 32l132 224l-68 223l51 30z" />
<glyph unicode="&#xc4;" horiz-adv-x="724" d="M581 815l-9 -73h-78l9 73h78zM404 815l-9 -73h-78l9 73h78zM730 46l-6 -46h-173l5 46l31 6q17 3 18 13q1 3 -2 15l-36 122h-362l-66 -122q-6 -12 -6 -15q-1 -7 2.5 -9t12.5 -4l29 -6l-6 -46h-171l6 46l36 9q18 5 29 23l282 512q11 20 -8 23l-36 7l6 46h194l164 -588 q4 -18 22 -23zM552 256l-90 337q-2 10 -4 14t-6 7t-11 3q-10 0 -14.5 -4.5t-10.5 -15.5q-1 -3 -2 -4l-181 -337h319z" />
<glyph unicode="&#xd6;" horiz-adv-x="673" d="M558 815l-9 -73h-78l9 73h78zM381 815l-9 -73h-78l9 73h78zM654 332q-9 -76 -17.5 -122.5t-24 -89t-35.5 -63.5t-54 -37.5t-77.5 -21.5t-108.5 -5t-107.5 5.5t-73 22t-45 38t-20 64t-2.5 88.5t12 121q10 78 19.5 128t26 91t36.5 62.5t55.5 36t76.5 19t105 4.5 q65 0 107.5 -5t72.5 -22t44.5 -38t19.5 -64t2 -89t-12 -123zM584 332q18 115 13 178t-43 84.5t-141 21.5q-50 0 -80.5 -3t-57.5 -14.5t-41.5 -28t-27 -51.5t-20 -76.5t-15.5 -110.5q-8 -68 -11 -106.5t0.5 -74.5t13.5 -52.5t33.5 -29t54.5 -16t82 -3.5q52 0 84.5 3t58.5 17 t39.5 29t25.5 53t17.5 74t14.5 106z" />
<glyph unicode="&#xdc;" horiz-adv-x="766" d="M608 815l-9 -73h-78l9 73h78zM431 815l-9 -73h-78l9 73h78zM785 666l-6 -46l-37 -7q-14 -2 -16 -18l-64 -524q-2 -16 12 -18l35 -7l-6 -46h-108l-2 35q0 16 -14 16q-9 0 -21 -7l-68 -41q-65 -10 -134 -10q-146 0 -187 47.5t-23 187.5l45 367q2 16 -12 18l-35 7l6 46h168 l-6 -46l-37 -7q-14 -2 -16 -18l-44 -363q-14 -115 13.5 -148t140.5 -33q56 0 112.5 6.5t84.5 13.5l29 7l63 517q2 16 -12 18l-35 7l6 46h168z" />
<glyph unicode="&#xdf;" horiz-adv-x="515" d="M309 360l-29 2l6 45l29 4q53 7 79.5 30.5t33.5 81.5q8 65 -12 82t-89 17t-94.5 -17.5t-33.5 -81.5l-64 -523h-103l5 39l26 5q15 3 17 18l56 461q11 90 51.5 120t146.5 30q105 0 137.5 -29.5t21.5 -120.5q-11 -93 -84 -113q-21 -7 -22 -16q-1 -11 12 -14 q73 -19 87.5 -53.5t2.5 -129.5q-15 -118 -57.5 -157.5t-144.5 -39.5h-64l5 41l42 4q37 4 55.5 7t38.5 12t29 25.5t17 43t13 69.5q4 36 5 60t-4 41.5t-12.5 27.5t-23.5 16.5t-33 8.5t-46 4z" />
<glyph unicode="&#xe4;" horiz-adv-x="537" d="M478 618l-9 -73h-78l9 73h78zM301 618l-9 -73h-78l9 73h78zM513 447l-47 -384q-1 -6 -0.5 -10t3 -5.5t8.5 -2.5l26 -5l-5 -40h-98l-1 25q-3 16 -15 16q-5 0 -21 -9l-51 -32q-44 -7 -86 -7q-73 0 -110 30.5t-41 83.5t3 125q7 57 18.5 95.5t34.5 73.5t63.5 52.5t98.5 17.5 q44 0 99 -6t88 -12zM445 408q-72 12 -137 12q-86 0 -118 -37.5t-46 -150.5t8.5 -150.5t108.5 -37.5q31 0 66.5 5t55.5 10l20 5z" />
<glyph unicode="&#xf6;" horiz-adv-x="522" d="M458 618l-9 -73h-78l9 73h78zM281 618l-9 -73h-78l9 73h78zM500 232q-18 -149 -62.5 -194t-177.5 -45q-56 0 -90 6t-58.5 21.5t-31.5 42.5t-9.5 68.5t7.5 100.5q10 78 22.5 121t40.5 71.5t68 37.5t110 9q133 0 166.5 -45t14.5 -194zM434 232q6 46 8 73t-1 50.5t-10 34.5 t-23.5 19t-37.5 10t-57 2q-53 0 -79.5 -5t-46 -27t-27 -55t-15.5 -102q-6 -46 -8 -73t1 -50.5t10 -34.5t23.5 -19t37.5 -10t57 -2q53 0 79.5 5t46 27t27 55t15.5 102z" />
<glyph unicode="&#xfc;" horiz-adv-x="557" d="M468 618l-9 -73h-78l9 73h78zM291 618l-9 -73h-78l9 73h78zM531 465l-49 -402q-1 -6 -0.5 -10t3 -5.5t8.5 -2.5l26 -5l-5 -40h-93l-1 25q0 16 -14 16q-8 0 -21 -9l-52 -32q-48 -7 -76 -7q-103 0 -134 35t-19 136l29 238q1 6 0.5 10t-3 5.5t-8.5 2.5l-26 5l5 40h103 l-35 -288q-11 -84 9.5 -108.5t102.5 -24.5q31 0 65.5 5t53.5 9l19 5l41 339q1 6 0.5 10t-3 5.5t-8.5 2.5l-26 5l5 40h103z" />
<glyph unicode="&#x2c6;" horiz-adv-x="326" d="M347 557l-29 -35l-81 74l-100 -74l-22 35l130 102z" />
<glyph unicode="&#x2da;" horiz-adv-x="250" d="M275 579q-4 -35 -29.5 -56t-58.5 -21t-53 21t-16 56t29.5 56t58.5 21t53 -21t16 -56zM240 579q3 20 -8.5 32t-30.5 12t-32 -11.5t-16 -32.5q-2 -20 8.5 -31.5t29.5 -11.5t33 11.5t16 31.5z" />
<glyph unicode="&#x2dc;" horiz-adv-x="339" d="M365 596q-39 -61 -78 -61q-18 0 -53 19q-34 18 -47 18q-11 0 -18.5 -7t-19.5 -28l-33 25q22 33 39.5 46.5t39.5 13.5q18 0 53 -19q36 -19 47 -19q16 0 37 37z" />
<glyph unicode="&#x2000;" horiz-adv-x="407" />
<glyph unicode="&#x2001;" horiz-adv-x="815" />
<glyph unicode="&#x2002;" horiz-adv-x="407" />
<glyph unicode="&#x2003;" horiz-adv-x="815" />
<glyph unicode="&#x2004;" horiz-adv-x="271" />
<glyph unicode="&#x2005;" horiz-adv-x="203" />
<glyph unicode="&#x2006;" horiz-adv-x="135" />
<glyph unicode="&#x2007;" horiz-adv-x="135" />
<glyph unicode="&#x2008;" horiz-adv-x="101" />
<glyph unicode="&#x2009;" horiz-adv-x="163" />
<glyph unicode="&#x200a;" horiz-adv-x="45" />
<glyph unicode="&#x2010;" horiz-adv-x="282" d="M269 275l-8 -65h-188l8 65h188z" />
<glyph unicode="&#x2011;" horiz-adv-x="282" d="M269 275l-8 -65h-188l8 65h188z" />
<glyph unicode="&#x2013;" horiz-adv-x="450" d="M437 275l-8 -65h-356l8 65h356z" />
<glyph unicode="&#x2014;" horiz-adv-x="717" d="M704 275l-8 -65h-623l9 65h622z" />
<glyph unicode="&#x2018;" horiz-adv-x="194" d="M242 732l-66 -115h36l-10 -81h-87l10 81l67 115h50z" />
<glyph unicode="&#x2019;" horiz-adv-x="194" d="M227 666l-10 -81l-67 -115h-50l66 115h-36l10 81h87z" />
<glyph unicode="&#x201a;" horiz-adv-x="194" d="M155 81l-10 -81l-67 -115h-50l66 115h-36l10 81h87z" />
<glyph unicode="&#x201c;" horiz-adv-x="342" d="M242 732l-66 -115h36l-10 -81h-87l10 81l67 115h50zM390 732l-66 -115h36l-10 -81h-87l10 81l67 115h50z" />
<glyph unicode="&#x201d;" horiz-adv-x="342" d="M227 666l-10 -81l-67 -115h-50l66 115h-36l10 81h87zM375 666l-10 -81l-67 -115h-50l66 115h-36l10 81h87z" />
<glyph unicode="&#x201e;" horiz-adv-x="342" d="M155 81l-10 -81l-67 -115h-50l66 115h-36l10 81h87zM303 81l-10 -81l-67 -115h-50l66 115h-36l10 81h87z" />
<glyph unicode="&#x2026;" horiz-adv-x="544" d="M506 91l-11 -91h-101l11 91h101zM161 91l-11 -91h-101l11 91h101zM334 91l-12 -91h-100l11 91h101z" />
<glyph unicode="&#x202f;" horiz-adv-x="163" />
<glyph unicode="&#x2039;" horiz-adv-x="260" d="M261 479l-123 -223l79 -224l-48 -32l-91 256l140 253z" />
<glyph unicode="&#x203a;" horiz-adv-x="260" d="M244 256l-153 -256l-40 32l133 224l-68 223l50 30z" />
<glyph unicode="&#x205f;" horiz-adv-x="203" />
<glyph unicode="&#x20ac;" d="M699 646l-17 -58q-131 23 -214 23q-130 0 -173 -38q-42 -37 -62 -142h288l-7 -57h-291q-4 -25 -5 -42q-4 -29 -5 -40h291l-7 -57h-288q-4 -104 29 -143q20 -23 59.5 -31.5t107.5 -8.5q45 0 98.5 5.5t84.5 10.5l31 6l3 -55q-118 -26 -232 -26q-85 0 -136 12.5t-77 43.5 q-44 51 -38 186h-78l7 57h75q1 13 5 41q1 16 5 41h-75l7 57h78q27 136 82 187q61 55 224 55q103 0 230 -27z" />
<glyph unicode="&#x2122;" horiz-adv-x="835" d="M884 666l-47 -379h-45l41 333q2 15 -10 15q-8 0 -15 -11l-143 -207h-51l-92 207q-6 11 -12 11q-12 0 -15 -15l-40 -333h-46l47 379h103l83 -196q0 -4 4 -4q2 0 6 4l128 196h104zM412 666l-6 -44h-125l-41 -335h-47l41 335h-125l6 44h297z" />
</font>
</defs>
</svg>
